<svg id="visual" viewBox="0 0 900 600" width="900" height="600" xmlns="http://www.w3.org/2000/svg" xmlns:xlink="http://www.w3.org/1999/xlink" version="1.1"><path d="M0 199L21.5 206.5C43 214 86 229 128.8 221C171.7 213 214.3 182 257.2 174.3C300 166.7 343 182.3 385.8 198C428.7 213.7 471.3 229.3 514.2 232.2C557 235 600 225 642.8 209.2C685.7 193.3 728.3 171.7 771.2 160.7C814 149.7 857 149.3 878.5 149.2L900 149L900 0L878.5 0C857 0 814 0 771.2 0C728.3 0 685.7 0 642.8 0C600 0 557 0 514.2 0C471.3 0 428.7 0 385.8 0C343 0 300 0 257.2 0C214.3 0 171.7 0 128.8 0C86 0 43 0 21.5 0L0 0Z" fill="#f06292"></path><path d="M0 169L21.5 174.7C43 180.3 86 191.7 128.8 196C171.7 200.3 214.3 197.7 257.2 193.7C300 189.7 343 184.3 385.8 174.8C428.7 165.3 471.3 151.7 514.2 146.7C557 141.7 600 145.3 642.8 151.8C685.7 158.3 728.3 167.7 771.2 168C814 168.3 857 159.7 878.5 155.3L900 151L900 0L878.5 0C857 0 814 0 771.2 0C728.3 0 685.7 0 642.8 0C600 0 557 0 514.2 0C471.3 0 428.7 0 385.8 0C343 0 300 0 257.2 0C214.3 0 171.7 0 128.8 0C86 0 43 0 21.5 0L0 0Z" fill="#e24e97"></path><path d="M0 120L21.5 124.7C43 129.3 86 138.7 128.8 141.8C171.7 145 214.3 142 257.2 133C300 124 343 109 385.8 109.7C428.7 110.3 471.3 126.7 514.2 137.3C557 148 600 153 642.8 147.3C685.7 141.7 728.3 125.3 771.2 115.2C814 105 857 101 878.5 99L900 97L900 0L878.5 0C857 0 814 0 771.2 0C728.3 0 685.7 0 642.8 0C600 0 557 0 514.2 0C471.3 0 428.7 0 385.8 0C343 0 300 0 257.2 0C214.3 0 171.7 0 128.8 0C86 0 43 0 21.5 0L0 0Z" fill="#d03c9e"></path><path d="M0 97L21.5 97.5C43 98 86 99 128.8 101.3C171.7 103.7 214.3 107.3 257.2 100.2C300 93 343 75 385.8 72.8C428.7 70.7 471.3 84.3 514.2 84.3C557 84.3 600 70.7 642.8 69.7C685.7 68.7 728.3 80.3 771.2 82.5C814 84.7 857 77.3 878.5 73.7L900 70L900 0L878.5 0C857 0 814 0 771.2 0C728.3 0 685.7 0 642.8 0C600 0 557 0 514.2 0C471.3 0 428.7 0 385.8 0C343 0 300 0 257.2 0C214.3 0 171.7 0 128.8 0C86 0 43 0 21.5 0L0 0Z" fill="#b92ea7"></path><path d="M0 30L21.5 36.5C43 43 86 56 128.8 58C171.7 60 214.3 51 257.2 45C300 39 343 36 385.8 33.7C428.7 31.3 471.3 29.7 514.2 30.2C557 30.7 600 33.3 642.8 40.2C685.7 47 728.3 58 771.2 63.8C814 69.7 857 70.3 878.5 70.7L900 71L900 0L878.5 0C857 0 814 0 771.2 0C728.3 0 685.7 0 642.8 0C600 0 557 0 514.2 0C471.3 0 428.7 0 385.8 0C343 0 300 0 257.2 0C214.3 0 171.7 0 128.8 0C86 0 43 0 21.5 0L0 0Z" fill="#9c27b0"></path></svg>