<svg id="visual" viewBox="0 0 960 540" width="960" height="540" xmlns="http://www.w3.org/2000/svg" xmlns:xlink="http://www.w3.org/1999/xlink" version="1.1"><path d="M0 108L14.5 113.2C29 118.3 58 128.7 87.2 137.3C116.3 146 145.7 153 174.8 162.7C204 172.3 233 184.7 262 178.2C291 171.7 320 146.3 349 136.2C378 126 407 131 436.2 144.2C465.3 157.3 494.7 178.7 523.8 188.5C553 198.3 582 196.7 611 188.3C640 180 669 165 698 165C727 165 756 180 785.2 178.7C814.3 177.3 843.7 159.7 872.8 160.5C902 161.3 931 180.7 945.5 190.3L960 200L960 0L945.5 0C931 0 902 0 872.8 0C843.7 0 814.3 0 785.2 0C756 0 727 0 698 0C669 0 640 0 611 0C582 0 553 0 523.8 0C494.7 0 465.3 0 436.2 0C407 0 378 0 349 0C320 0 291 0 262 0C233 0 204 0 174.8 0C145.7 0 116.3 0 87.2 0C58 0 29 0 14.5 0L0 0Z" fill="#2208cc"></path><path d="M0 127L14.5 122.7C29 118.3 58 109.7 87.2 113.7C116.3 117.7 145.7 134.3 174.8 130C204 125.7 233 100.3 262 93.5C291 86.7 320 98.3 349 104C378 109.7 407 109.3 436.2 108.2C465.3 107 494.7 105 523.8 106C553 107 582 111 611 115.3C640 119.7 669 124.3 698 129.3C727 134.3 756 139.7 785.2 137.7C814.3 135.7 843.7 126.3 872.8 126.7C902 127 931 137 945.5 142L960 147L960 0L945.5 0C931 0 902 0 872.8 0C843.7 0 814.3 0 785.2 0C756 0 727 0 698 0C669 0 640 0 611 0C582 0 553 0 523.8 0C494.7 0 465.3 0 436.2 0C407 0 378 0 349 0C320 0 291 0 262 0C233 0 204 0 174.8 0C145.7 0 116.3 0 87.2 0C58 0 29 0 14.5 0L0 0Z" fill="#0047d2"></path><path d="M0 122L14.5 119.7C29 117.3 58 112.7 87.2 106.3C116.3 100 145.7 92 174.8 90.3C204 88.7 233 93.3 262 98.7C291 104 320 110 349 114.2C378 118.3 407 120.7 436.2 119.3C465.3 118 494.7 113 523.8 112.3C553 111.7 582 115.3 611 107.8C640 100.3 669 81.7 698 76.5C727 71.3 756 79.7 785.2 90.2C814.3 100.7 843.7 113.3 872.8 114.7C902 116 931 106 945.5 101L960 96L960 0L945.5 0C931 0 902 0 872.8 0C843.7 0 814.3 0 785.2 0C756 0 727 0 698 0C669 0 640 0 611 0C582 0 553 0 523.8 0C494.7 0 465.3 0 436.2 0C407 0 378 0 349 0C320 0 291 0 262 0C233 0 204 0 174.8 0C145.7 0 116.3 0 87.2 0C58 0 29 0 14.5 0L0 0Z" fill="#0067ca"></path><path d="M0 60L14.5 60.8C29 61.7 58 63.3 87.2 69.5C116.3 75.7 145.7 86.3 174.8 91.7C204 97 233 97 262 92.7C291 88.3 320 79.7 349 75.8C378 72 407 73 436.2 74C465.3 75 494.7 76 523.8 77.3C553 78.7 582 80.3 611 78.8C640 77.3 669 72.7 698 68.7C727 64.7 756 61.3 785.2 56.5C814.3 51.7 843.7 45.3 872.8 45.3C902 45.3 931 51.7 945.5 54.8L960 58L960 0L945.5 0C931 0 902 0 872.8 0C843.7 0 814.3 0 785.2 0C756 0 727 0 698 0C669 0 640 0 611 0C582 0 553 0 523.8 0C494.7 0 465.3 0 436.2 0C407 0 378 0 349 0C320 0 291 0 262 0C233 0 204 0 174.8 0C145.7 0 116.3 0 87.2 0C58 0 29 0 14.5 0L0 0Z" fill="#007bb4"></path><path d="M0 62L14.5 56.8C29 51.7 58 41.3 87.2 38.7C116.3 36 145.7 41 174.8 38.2C204 35.3 233 24.7 262 20.7C291 16.7 320 19.3 349 25.3C378 31.3 407 40.7 436.2 41.7C465.3 42.7 494.7 35.3 523.8 32.2C553 29 582 30 611 34.7C640 39.3 669 47.7 698 45.2C727 42.7 756 29.3 785.2 24.2C814.3 19 843.7 22 872.8 25.3C902 28.7 931 32.3 945.5 34.2L960 36L960 0L945.5 0C931 0 902 0 872.8 0C843.7 0 814.3 0 785.2 0C756 0 727 0 698 0C669 0 640 0 611 0C582 0 553 0 523.8 0C494.7 0 465.3 0 436.2 0C407 0 378 0 349 0C320 0 291 0 262 0C233 0 204 0 174.8 0C145.7 0 116.3 0 87.2 0C58 0 29 0 14.5 0L0 0Z" fill="#00838f"></path></svg>